<svg xmlns="http://www.w3.org/2000/svg" width="1200" height="600" viewBox="0 0 1200 600"><path fill="#fff" d="M0 0h1200v600H0z"/><path data-name="Text Shape" d="M322.924 454.949q-8.111.322-16.113.51t-16.006.457l-.645 16.113 12.891.215-.215 4.19a9.24 9.24 0 01-3.733 1.826 17.57 17.57 0 01-4.216.537 10.939 10.939 0 01-5.291-1.235 11.746 11.746 0 01-3.813-3.25 13.926 13.926 0 01-2.283-4.619 19.342 19.342 0 01-.752-5.4 19.134 19.134 0 011.611-8 17.88 17.88 0 014.378-6.016 19.26 19.26 0 016.5-3.786 23.983 23.983 0 018.03-1.316 49.931 49.931 0 016.257.4 27.335 27.335 0 016.2 1.53l1.5-20.517a23.617 23.617 0 00-4.511-1.987 36.917 36.917 0 00-5.076-1.263 52.243 52.243 0 00-5.237-.644q-2.632-.187-4.941-.188a39.343 39.343 0 00-11.6 1.665 38.666 38.666 0 00-9.99 4.673 39.407 39.407 0 00-8.164 7.17 44.389 44.389 0 00-6.1 9.131 49.313 49.313 0 00-5.175 22.055 37.967 37.967 0 002.685 14.341 35.6 35.6 0 007.439 11.575 34.166 34.166 0 0011.306 7.707 36.2 36.2 0 0014.341 2.793 49.5 49.5 0 008.487-.778 50.385 50.385 0 008.7-2.337 41.008 41.008 0 007.949-3.921 25.164 25.164 0 006.23-5.532zm65.017-16.489a25.45 25.45 0 00-7.063-8.433 30.763 30.763 0 00-10.125-5.075 41.53 41.53 0 00-11.843-1.692q-3.975 0-7.761.188t-7.466.7a69.05 69.05 0 00-14.744 3.733q-.321 6.177-.429 12.246t-.21 12.244q-.323 12.246-.564 24.385t-.51 24.385h23.095l.967-22.344 6.66-.215 8.272 22.881 24.17-4.727-12.79-22.773a35.825 35.825 0 005.961-4.619 22.424 22.424 0 004.029-5.264 22.876 22.876 0 002.283-6.257 36.672 36.672 0 00.725-7.6 24.9 24.9 0 00-2.657-11.763zm-22.612 18.1a10.122 10.122 0 01-3.116 3.168 14 14 0 01-4.3 1.827 19.54 19.54 0 01-4.7.59h-1.289l.859-19.98a14.566 14.566 0 011.987-.4 16.126 16.126 0 012.1-.134 10.553 10.553 0 014.216.779 8.377 8.377 0 013.008 2.148 9.174 9.174 0 011.826 3.25 13.179 13.179 0 01.618 4.135 8.548 8.548 0 01-1.209 4.618zm87.656-6.634a42.324 42.324 0 00-2.2-8.11 32.172 32.172 0 00-3.76-7.063 25.144 25.144 0 00-5.371-5.559 24.316 24.316 0 00-7.036-3.653 27.487 27.487 0 00-8.728-1.315 31.587 31.587 0 00-10.5 1.665 29.386 29.386 0 00-8.513 4.619 33.432 33.432 0 00-6.58 6.9 40.836 40.836 0 00-4.672 8.566 49.8 49.8 0 00-2.767 9.615 55.424 55.424 0 00-.913 9.99 49.151 49.151 0 00.913 9.453 44.653 44.653 0 002.686 8.862 35.927 35.927 0 004.456 7.738 29.97 29.97 0 006.257 6.15 28.625 28.625 0 007.976 4.055 30.941 30.941 0 009.722 1.45 44.139 44.139 0 005.264-.322 38.8 38.8 0 005.317-1.021 31.145 31.145 0 005.076-1.826 23.719 23.719 0 004.538-2.739L446.728 473q-1.666 1.128-3.975 2.525t-4.834 2.6a38.834 38.834 0 01-5.076 2.015 15.7 15.7 0 01-4.7.805 11.272 11.272 0 01-7.117-2.309 13.334 13.334 0 01-4.378-6.177q9.077-1.288 18.155-2.605t18.261-1.907a68.261 68.261 0 00.645-9.345 51.776 51.776 0 00-.724-8.675zm-20.759 7.063l-15.9 1.5a28.645 28.645 0 011.128-3.76 17.539 17.539 0 011.934-3.786 11.178 11.178 0 012.819-2.9 6.413 6.413 0 013.793-1.15 5 5 0 012.954.832 6.4 6.4 0 011.907 2.122 9.818 9.818 0 011.047 2.873 15.484 15.484 0 01.323 3.089v1.181zm84.191-7.063a42.179 42.179 0 00-2.2-8.11 32.127 32.127 0 00-3.759-7.063 25.148 25.148 0 00-5.372-5.559 24.3 24.3 0 00-7.036-3.653 27.478 27.478 0 00-8.728-1.315 31.581 31.581 0 00-10.5 1.665 29.386 29.386 0 00-8.513 4.619 33.432 33.432 0 00-6.58 6.9 40.839 40.839 0 00-4.673 8.566 49.872 49.872 0 00-2.766 9.615 55.424 55.424 0 00-.913 9.99 49.151 49.151 0 00.913 9.453 44.653 44.653 0 002.686 8.862 35.885 35.885 0 004.458 7.735 29.946 29.946 0 006.257 6.15 28.625 28.625 0 007.976 4.055 30.941 30.941 0 009.722 1.45 44.135 44.135 0 005.263-.322 38.817 38.817 0 005.318-1.021 31.1 31.1 0 005.075-1.826 23.726 23.726 0 004.539-2.739L510.16 473q-1.665 1.128-3.974 2.525t-4.834 2.6a38.89 38.89 0 01-5.076 2.015 15.706 15.706 0 01-4.7.805 11.274 11.274 0 01-7.117-2.309 13.332 13.332 0 01-4.377-6.177q9.077-1.288 18.154-2.605t18.262-1.907a68.261 68.261 0 00.645-9.345 51.672 51.672 0 00-.726-8.675zm-20.759 7.063l-15.9 1.5a28.645 28.645 0 011.128-3.76 17.536 17.536 0 011.933-3.786 11.166 11.166 0 012.82-2.9 6.411 6.411 0 013.787-1.154 5.005 5.005 0 012.954.832 6.411 6.411 0 011.907 2.122 9.818 9.818 0 011.047 2.873 15.481 15.481 0 01.322 3.089v1.181zm91.631 10.689q0-3.921-.188-8.111t-.725-8.513a66.188 66.188 0 00-1.558-8.3 41.79 41.79 0 00-2.685-7.493 22.868 22.868 0 00-4.136-6.1 18.172 18.172 0 00-5.908-4.082 19.835 19.835 0 00-8-1.5 16.232 16.232 0 00-4.7.671 19.673 19.673 0 00-4.216 1.827 21.132 21.132 0 00-3.733 2.766 34.567 34.567 0 00-3.249 3.437l.214-8.594-25.351 1.29q-.593 18.96-1.585 37.705t-2.068 37.7l27.393-1.182q.269-9.559.43-18.933t.426-18.866q0-1.182.081-3.035t.322-3.948a38 38 0 01.725-4.189 17.465 17.465 0 011.316-3.787 8.495 8.495 0 012.095-2.766 4.6 4.6 0 013.088-1.074 2.081 2.081 0 011.746 1.1 10.655 10.655 0 011.235 2.82 26.539 26.539 0 01.806 3.786q.294 2.069.457 4.029t.214 3.518q.054 1.558.054 2.255a154.594 154.594 0 01-1.182 19.148q-1.182 9.482-2.793 18.987l30.938.537q.269-6.015.4-11.95t.134-12v-7.143zm84.783-22.559a30.03 30.03 0 00-7.278-10.635 31.881 31.881 0 00-11.118-6.66 41.623 41.623 0 00-14.126-2.309 100.811 100.811 0 00-12.434.778 67.641 67.641 0 00-12.166 2.659l-1.5 72.08q2.524.27 4.942.4t4.941.134a81.781 81.781 0 0013.186-1.047 61.68 61.68 0 0012.112-3.223 47.216 47.216 0 0010.474-5.559 36.06 36.06 0 008.244-8.083 36.89 36.89 0 005.4-10.742 44.392 44.392 0 001.934-13.562 36.9 36.9 0 00-2.611-14.23zm-19.417 18.423a19.843 19.843 0 01-1.155 6.042 18.382 18.382 0 01-2.954 5.318 17.762 17.762 0 01-4.538 4.028 15.223 15.223 0 01-5.855 2.122l2.149-33.3a12.737 12.737 0 015.639 1.37 11.515 11.515 0 013.894 3.33 13.349 13.349 0 012.2 4.753 21.325 21.325 0 01.617 5.586v.752zm89.134-16.892A30.1 30.1 0 00723.8 428.9a40.039 40.039 0 00-14.206-2.417 31.013 31.013 0 00-9.185 1.343 32.378 32.378 0 00-8.083 3.76 33.79 33.79 0 00-6.741 5.747 36.465 36.465 0 00-5.129 7.305 37.53 37.53 0 00-4.378 17.617 34.53 34.53 0 001.209 9.184 35.879 35.879 0 003.384 8.245 33.381 33.381 0 005.263 6.983 32.955 32.955 0 006.9 5.371 34.945 34.945 0 008.191 3.464 33.742 33.742 0 009.211 1.235 33.106 33.106 0 0017.7-5 32.788 32.788 0 006.821-5.666 35.265 35.265 0 005.157-7.278 36.913 36.913 0 003.249-8.513 40.969 40.969 0 00-1.374-23.629zm-22.1 20.168a12.3 12.3 0 01-2.149 3.894 10.234 10.234 0 01-3.411 2.686 10.109 10.109 0 01-4.538.994 8.533 8.533 0 01-4.431-1.128 10.27 10.27 0 01-3.2-2.954 13.425 13.425 0 01-1.934-4.082 16.382 16.382 0 01-.644-4.512 13.313 13.313 0 01.752-4.485 10.949 10.949 0 012.175-3.706 10.336 10.336 0 013.411-2.5 10.694 10.694 0 014.511-.913 8.94 8.94 0 014.378 1.048 10.065 10.065 0 013.2 2.739 12.325 12.325 0 011.96 3.867 15.143 15.143 0 01.671 4.485 14.029 14.029 0 01-.753 4.568zm94.423.86q0-3.921-.188-8.111t-.725-8.513a66.37 66.37 0 00-1.557-8.3 41.792 41.792 0 00-2.686-7.493 22.868 22.868 0 00-4.136-6.1 18.172 18.172 0 00-5.908-4.082 19.835 19.835 0 00-8-1.5 16.22 16.22 0 00-4.7.671 19.681 19.681 0 00-4.217 1.827 21.169 21.169 0 00-3.733 2.766 34.567 34.567 0 00-3.249 3.437l.215-8.594-25.352 1.29q-.591 18.96-1.584 37.705t-2.068 37.7l27.392-1.182q.269-9.559.43-18.933t.43-18.879q0-1.182.08-3.035t.323-3.948a37.77 37.77 0 01.725-4.189 17.359 17.359 0 011.316-3.787 8.493 8.493 0 012.094-2.766 4.6 4.6 0 013.086-1.062 2.081 2.081 0 011.745 1.1 10.654 10.654 0 011.236 2.82 26.681 26.681 0 01.8 3.786q.3 2.069.457 4.029t.215 3.518q.053 1.558.053 2.255a154.788 154.788 0 01-1.181 19.148q-1.182 9.482-2.793 18.987l30.937.537q.269-6.015.4-11.95t.134-12v-7.143zm63.621-41.116q-2.713.027-5.4.027-3.492 0-6.929-.054t-6.928-.161q.106 1.075.161 2.1t.053 2.094q0 1.666-.08 4.673t-.269 6.795q-.189 3.786-.564 8.083t-.993 8.513q-.618 4.218-1.5 8.084a42.121 42.121 0 01-2.122 6.821 15.953 15.953 0 01-2.846 4.7 4.868 4.868 0 01-3.653 1.746 2.959 2.959 0 01-2.663-1.535 11.634 11.634 0 01-1.4-3.572 24.567 24.567 0 01-.564-4.136q-.108-2.094-.107-3.222a78.729 78.729 0 01.59-9.668q.591-4.781 1.558-9.534t2.175-9.453q1.209-4.7 2.444-9.373-6.553.108-13.159-.161t-13.159-.591q-1.182 4.674-1.961 9.776t-1.262 10.312q-.483 5.211-.671 10.393t-.184 10.017a31 31 0 00.779 6.768 36.794 36.794 0 002.255 6.848 36.4 36.4 0 003.626 6.392 28.638 28.638 0 004.834 5.317 22.9 22.9 0 005.908 3.652 18.092 18.092 0 006.875 1.424 18.88 18.88 0 003.277-.188 17.4 17.4 0 003.33-.806 14.415 14.415 0 003.034-1.477 11.543 11.543 0 002.5-2.148l-.967 8.271 22.022-1.611q1.557-18.96 3.276-37.678t4.136-37.625q-2.742.161-5.454.188zm7.009-.188l-.642 25.353 16.006-.86 2.041 49.844 22.666-1.182 1.933-49.843 16.006-.645.537-22.773z" fill-rule="evenodd" fill="#464336"/><path data-name="Signet Shape" d="M657.143 272.365a54.723 54.723 0 00-32.715-32.275 72.783 72.783 0 00-25.83-4.4 56.334 56.334 0 00-16.7 2.442 58.8 58.8 0 00-14.7 6.836 61.442 61.442 0 00-12.256 10.449 66.312 66.312 0 00-9.326 13.281 68.263 68.263 0 00-7.959 32.031 62.854 62.854 0 002.2 16.7 65.35 65.35 0 006.153 14.99 60.671 60.671 0 009.57 12.7 59.81 59.81 0 0012.549 9.766 63.56 63.56 0 0014.892 6.3 61.363 61.363 0 0016.749 2.246 60.2 60.2 0 0032.177-9.082 59.671 59.671 0 0012.4-10.3 64.176 64.176 0 009.375-13.232 67.1 67.1 0 005.908-15.479 74.479 74.479 0 00-2.487-42.973zm-40.186 36.67a22.374 22.374 0 01-3.906 7.08 18.626 18.626 0 01-6.2 4.883 18.4 18.4 0 01-8.252 1.807 15.523 15.523 0 01-8.057-2.051 18.676 18.676 0 01-5.811-5.371 24.373 24.373 0 01-3.515-7.422 29.745 29.745 0 01-1.172-8.2 24.216 24.216 0 011.367-8.154 19.9 19.9 0 013.955-6.739 18.791 18.791 0 016.2-4.541 19.445 19.445 0 018.2-1.66 16.274 16.274 0 017.959 1.9 18.282 18.282 0 015.81 4.981 22.391 22.391 0 013.565 7.031 27.525 27.525 0 011.22 8.154 25.517 25.517 0 01-1.363 8.302z" fill="#7da22f" fill-rule="evenodd"/></svg>